<?xml version="1.0" standalone="no"?>
<!DOCTYPE svg PUBLIC "-//W3C//DTD SVG 20010904//EN"
 "http://www.w3.org/TR/2001/REC-SVG-20010904/DTD/svg10.dtd">
<svg version="1.0" xmlns="http://www.w3.org/2000/svg"
 width="260.000000pt" height="260.000000pt" viewBox="0 0 260.000000 260.000000"
 preserveAspectRatio="xMidYMid meet">
<metadata>
Created by potrace 1.11, written by Peter Selinger 2001-2013
</metadata>
<g transform="translate(0.000000,260.000000) scale(0.100000,-0.100000)"
fill="#000000" stroke="none">
<path d="M1232 1874 c-18 -9 -43 -31 -55 -48 -21 -29 -22 -43 -25 -228 l-3
-197 -177 -159 c-227 -205 -217 -192 -217 -259 0 -31 5 -58 10 -60 6 -2 94 55
195 126 l185 128 3 -129 3 -130 -51 -51 c-49 -49 -51 -52 -48 -101 4 -67 23
-70 87 -17 l49 41 112 0 111 0 49 -41 c63 -53 84 -50 88 15 3 47 1 51 -48 101
l-51 51 3 130 3 130 184 -128 c102 -71 190 -127 195 -125 15 5 19 77 7 109 -5
15 -96 104 -200 198 l-191 172 0 185 c0 205 -7 235 -63 275 -39 28 -112 34
-155 12z"/>
<path d="M130 1140 l0 -440 265 0 265 0 0 50 0 50 -215 0 -215 0 0 390 0 390
-50 0 -50 0 0 -440z"/>
<path d="M2370 1190 l0 -390 -215 0 -215 0 0 -50 0 -50 265 0 265 0 0 440 0
440 -50 0 -50 0 0 -390z"/>
</g>
</svg>
